<svg xmlns="http://www.w3.org/2000/svg" viewBox="0 0 900 620" role="img" aria-labelledby="title desc"><title id="title">Music and painting activities</title><desc id="desc">Colorful art brushes, musical notes, and child-friendly creative activity shapes.</desc><rect width="900" height="620" rx="48" fill="#fffdf8"/><circle cx="160" cy="140" r="110" fill="#9ccfea" opacity=".38"/><circle cx="734" cy="434" r="150" fill="#f7b84b" opacity=".30"/><path d="M158 424c96-90 230-90 326 0" fill="none" stroke="#9ed7bc" stroke-width="36" stroke-linecap="round"/><path d="M184 440h273" stroke="#2f6f57" stroke-width="18" stroke-linecap="round"/><g fill="none" stroke-linecap="round" stroke-linejoin="round"><path d="M560 154v170" stroke="#2f6f57" stroke-width="22"/><path d="M560 154l150-42v170l-150 42" stroke="#2f6f57" stroke-width="22"/><circle cx="525" cy="332" r="42" fill="#9ccfea" stroke="#2f6f57" stroke-width="14"/><circle cx="675" cy="290" r="42" fill="#f58f73" stroke="#2f6f57" stroke-width="14"/></g><path d="M230 150l90 260" stroke="#f58f73" stroke-width="28" stroke-linecap="round"/><path d="M290 142l-32 64" stroke="#f58f73" stroke-width="48" stroke-linecap="round"/><path d="M334 162l-92 32" stroke="#ffd98b" stroke-width="28" stroke-linecap="round"/><rect x="112" y="470" width="370" height="66" rx="33" fill="#f7b84b" opacity=".82"/><circle cx="202" cy="504" r="18" fill="#2f6f57"/><circle cx="274" cy="504" r="18" fill="#9ccfea"/><circle cx="346" cy="504" r="18" fill="#f58f73"/><path d="M688 100c28 38 26 84-6 118" stroke="#f58f73" stroke-width="16" fill="none" stroke-linecap="round"/><path d="M750 74c42 58 42 127-2 178" stroke="#9ccfea" stroke-width="16" fill="none" stroke-linecap="round"/></svg>